<?xml version="1.0" standalone="no"?><!DOCTYPE svg PUBLIC "-//W3C//DTD SVG 1.1//EN" "http://www.w3.org/Graphics/SVG/1.1/DTD/svg11.dtd"><svg t="1744251087137" class="icon" viewBox="0 0 1161 1024" version="1.1" xmlns="http://www.w3.org/2000/svg" p-id="4023" xmlns:xlink="http://www.w3.org/1999/xlink" width="226.7578125" height="200"><path d="M1111.033201 0H44.876494C20.398406 0 0 20.398406 0 44.876494v934.247012c0 24.478088 20.398406 44.876494 44.876494 44.876494h1067.5166c24.478088 0 44.876494-20.398406 44.876494-44.876494V44.876494C1155.909695 20.398406 1135.511288 0 1111.033201 0z" fill="#E6E6E9" p-id="4024"></path><path d="M356.292165 422.926959c48.956175 0 88.393094-39.436919 88.393094-88.393094S405.24834 246.14077 356.292165 246.14077s-88.393094 39.436919-88.393095 88.393095c-1.359894 47.596282 38.077025 88.393094 88.393095 88.393094z m399.808765-55.755644L492.281541 738.422311l-135.989376-189.025233L133.269588 867.612218h889.370518L756.10093 367.171315z" fill="#B5B5B6" p-id="4025"></path></svg>