<?xml version="1.0" standalone="no"?><!DOCTYPE svg PUBLIC "-//W3C//DTD SVG 1.1//EN" "http://www.w3.org/Graphics/SVG/1.1/DTD/svg11.dtd"><svg t="1744251151053" class="icon" viewBox="0 0 1024 1024" version="1.1" xmlns="http://www.w3.org/2000/svg" p-id="5144" data-spm-anchor-id="a313x.search_index.0.i5.14723a815Z4DAq" xmlns:xlink="http://www.w3.org/1999/xlink" width="200" height="200"><path d="M708.266667 315.733333c0 42.666667 34.133333 72.533333 72.533333 72.533334 42.666667 0 72.533333-34.133333 72.533333-72.533334s-34.133333-72.533333-72.533333-72.533333c-38.4-4.266667-72.533333 29.866667-72.533333 72.533333z" fill="#cdcdcd" p-id="5145"></path><path d="M1015.466667 98.133333c-4.266667-8.533333-12.8-12.8-21.333334-12.8l-477.866666-34.133333c-8.533333 0-17.066667 4.266667-21.333334 8.533333l-102.4 128c-8.533333 8.533333-8.533333 21.333333 0 34.133334l153.6 179.2-153.6 200.533333 38.4-183.466667c0-8.533333 0-17.066667-8.533333-25.6L226.133333 230.4s64-98.133333 81.066667-128c17.066667-25.6 0-51.2-34.133333-51.2-64 0-166.4 8.533333-238.933334 12.8-29.866667 4.266667-34.133333 29.866667-34.133333 38.4L59.733333 938.666667c0 12.8 8.533333 17.066667 25.6 17.066666l192-12.8c17.066667 0 29.866667-12.8 29.866667-29.866666 0-21.333333-17.066667-34.133333-34.133333-34.133334l-149.333334 12.8-8.533333-93.866666s98.133333-8.533333 128-12.8c12.8 0 34.133333-12.8 29.866667-34.133334 0-17.066667-17.066667-29.866667-34.133334-29.866666l-128 12.8-42.666666-584.533334c0-12.8 4.266667-21.333333 12.8-21.333333l119.466666-8.533333c8.533333 0 12.8 8.533333 8.533334 12.8L153.6 226.133333c-8.533333 8.533333-8.533333 25.6 4.266667 29.866667l209.066666 170.666667-59.733333 290.133333c-4.266667 12.8 0 21.333333 4.266667 25.6 12.8 38.4 51.2 157.866667 51.2 157.866667 4.266667 12.8 17.066667 21.333333 29.866666 21.333333 0 0 405.333333 38.4 541.866667 51.2 25.6 4.266667 34.133333-8.533333 34.133333-29.866667C981.333333 738.133333 1024 119.466667 1024 119.466667c0-8.533333-4.266667-17.066667-8.533333-21.333334z m-102.4 648.533334l-426.666667-42.666667c-12.8 0-34.133333 4.266667-34.133333 29.866667 0 29.866667 17.066667 34.133333 29.866666 34.133333l426.666667 42.666667-4.266667 81.066666c0 8.533333-8.533333 12.8-12.8 12.8l-465.066666-42.666666c-4.266667 0-8.533333-4.266667-12.8-8.533334L384 755.2c-4.266667-12.8-4.266667-17.066667 4.266667-25.6l238.933333-315.733333c8.533333-8.533333 8.533333-21.333333 0-34.133334l-149.333333-170.666666c-4.266667-4.266667-4.266667-12.8 0-17.066667L524.8 128c4.266667-8.533333 12.8-8.533333 21.333333-8.533333l396.8 25.6c8.533333 0 12.8 8.533333 12.8 12.8l-42.666666 588.8z" fill="#cdcdcd" p-id="5146"></path></svg>